<svg width="40" height="40" viewBox="0 0 40 40" fill="none" xmlns="http://www.w3.org/2000/svg">
<g clip-path="url(#clip0_1_4373)">
<rect width="40" height="40" fill="#F7931A"/>
<path d="M29.4843 17.5419C29.8818 14.8806 27.8555 13.45 25.0849 12.4956L25.9836 8.89061L23.7887 8.34374L22.9137 11.8537C22.3374 11.71 21.7449 11.5744 21.1562 11.44L22.0374 7.90686L19.8443 7.35999L18.9449 10.9637C18.4674 10.855 17.9987 10.7475 17.5437 10.6344L17.5462 10.6231L14.5199 9.86749L13.9362 12.2112C13.9362 12.2112 15.5643 12.5844 15.5299 12.6075C16.4187 12.8294 16.5799 13.4175 16.5524 13.8837L15.5287 17.9906C15.5899 18.0062 15.6693 18.0287 15.7568 18.0637L15.5255 18.0062L14.0899 23.7594C13.9812 24.0294 13.7055 24.4344 13.0843 24.2806C13.1062 24.3125 11.4893 23.8825 11.4893 23.8825L10.3999 26.395L13.2562 27.1069C13.7874 27.24 14.308 27.3794 14.8199 27.5106L13.9118 31.1575L16.1037 31.7044L17.0037 28.0969C17.6018 28.2594 18.183 28.4094 18.7518 28.5506L17.8555 32.1412L20.0499 32.6881L20.958 29.0487C24.6999 29.7569 27.5143 29.4712 28.6974 26.0875C29.6518 23.3625 28.6505 21.7906 26.6818 20.765C28.1155 20.4331 29.1955 19.49 29.4837 17.5419H29.4843ZM24.4699 24.5725C23.7912 27.2975 19.2037 25.825 17.7155 25.455L18.9205 20.6244C20.408 20.9956 25.1774 21.7306 24.4705 24.5725H24.4699ZM25.148 17.5025C24.5293 19.9812 20.7105 18.7219 19.4712 18.4131L20.5637 14.0319C21.803 14.3406 25.793 14.9169 25.148 17.5025Z" fill="white"/>
</g>
<defs>
<clipPath id="clip0_1_4373">
<rect width="40" height="40" rx="20" fill="white"/>
</clipPath>
</defs>
</svg>
