<svg width="40" height="40" viewBox="0 0 40 40" fill="none" xmlns="http://www.w3.org/2000/svg">
<g clip-path="url(#clip0_1_4340)">
<rect width="40" height="40" fill="#05A357"/>
<path d="M27.6509 28.6877C27.6509 28.8905 27.6154 29.0624 27.5442 29.2038C27.4731 29.3457 27.3802 29.4621 27.2655 29.5531C27.1507 29.644 27.0222 29.7099 26.88 29.7504C26.7377 29.7904 26.596 29.8109 26.4537 29.8109H25.5519C25.2674 29.8109 25.0185 29.7827 24.8051 29.7263C24.5918 29.6699 24.3898 29.5676 24.1987 29.4194C24.0072 29.2711 23.8161 29.0688 23.6245 28.8128C23.433 28.5568 23.2305 28.2312 23.0167 27.8365L16.7851 16.6656C16.4589 16.089 16.1308 15.4847 15.7998 14.8522C15.4689 14.2197 15.1607 13.6049 14.8757 13.0079H14.844C14.8648 13.7363 14.8805 14.4802 14.8909 15.2391C14.9009 15.998 14.9061 16.752 14.9061 17.5004V29.3543C14.9061 29.4253 14.8833 29.4939 14.8387 29.5594C14.7942 29.6249 14.7188 29.6754 14.6126 29.7108C14.5064 29.7463 14.367 29.7763 14.1939 29.8022C14.0204 29.8272 13.7999 29.84 13.532 29.84C13.2637 29.84 13.0432 29.8272 12.8701 29.8022C12.6971 29.7763 12.5605 29.7463 12.46 29.7108C12.3595 29.6754 12.2865 29.6249 12.2419 29.5594C12.1974 29.4939 12.175 29.4253 12.175 29.3543V11.2322C12.175 10.8275 12.295 10.5392 12.5349 10.3673C12.7748 10.1955 13.037 10.1091 13.3211 10.1091H14.6633C14.9801 10.1091 15.2446 10.1345 15.4575 10.185C15.6699 10.2359 15.861 10.3192 16.0303 10.4356C16.1995 10.552 16.3631 10.7138 16.5215 10.9212C16.6798 11.1285 16.8453 11.3891 17.0184 11.7028L21.8091 20.3237C22.104 20.8498 22.3885 21.3632 22.663 21.8643C22.9375 22.3654 23.2021 22.8583 23.4562 23.3439C23.7104 23.8296 23.9621 24.3079 24.2115 24.7781C24.4609 25.2487 24.7075 25.7216 24.9517 26.1973H24.9673C24.9464 25.3988 24.9332 24.5676 24.9279 23.7032C24.9223 22.8392 24.9199 22.0075 24.9199 21.2091V10.5651C24.9199 10.4947 24.9422 10.4292 24.9867 10.3682C25.0313 10.3073 25.1067 10.2541 25.2129 10.2087C25.3191 10.1632 25.4585 10.1304 25.632 10.1104C25.8051 10.0904 26.0313 10.08 26.3105 10.08C26.5561 10.08 26.7681 10.0904 26.9468 10.1104C27.1256 10.1309 27.2655 10.1636 27.366 10.2091C27.4665 10.2546 27.539 10.3078 27.5836 10.3682C27.6282 10.4292 27.6509 10.4947 27.6509 10.5656V28.6877Z" fill="white"/>
<path d="M30.2404 18.492H9.68042V17.328H30.2404V18.492Z" fill="white"/>
<path d="M30.2404 22.8945H9.68042V21.7305H30.2404V22.8945Z" fill="white"/>
</g>
<defs>
<clipPath id="clip0_1_4340">
<rect width="40" height="40" rx="20" fill="white"/>
</clipPath>
</defs>
</svg>
