<svg width="40" height="40" viewBox="0 0 40 40" fill="none" xmlns="http://www.w3.org/2000/svg">
<g clip-path="url(#clip0_1_4385)">
<rect width="40" height="40" fill="#2775CA"/>
<path d="M24.8754 22.5896C24.8754 20.0001 23.3216 19.1122 20.2141 18.7423C17.9944 18.4463 17.5505 17.8545 17.5505 16.8185C17.5505 15.7825 18.2904 15.1168 19.7701 15.1168C21.1019 15.1168 21.8419 15.5607 22.2118 16.6706C22.2858 16.8925 22.5078 17.0405 22.7298 17.0405H23.9135C24.2095 17.0405 24.4314 16.8185 24.4314 16.5227V16.4486C24.1354 14.8208 22.8036 13.563 21.1019 13.4151V11.6394C21.1019 11.3434 20.88 11.1214 20.5101 11.0474H19.4003C19.1042 11.0474 18.8823 11.2693 18.8082 11.6394V13.3411C16.5886 13.6371 15.1829 15.1168 15.1829 16.9666C15.1829 19.4082 16.6626 20.37 19.7701 20.74C21.8419 21.1099 22.5078 21.5538 22.5078 22.7377C22.5078 23.9216 21.4718 24.7354 20.0662 24.7354C18.1423 24.7354 17.4764 23.9214 17.2545 22.8116C17.1806 22.5157 16.9586 22.3676 16.7367 22.3676H15.4787C15.1829 22.3676 14.9609 22.5896 14.9609 22.8856V22.9597C15.2568 24.8093 16.4407 26.1411 18.8823 26.5111V28.2869C18.8823 28.5827 19.1043 28.8047 19.4741 28.8787H20.584C20.88 28.8787 21.1019 28.6568 21.176 28.2869V26.5111C23.3957 26.1411 24.8754 24.5873 24.8754 22.5896Z" fill="white"/>
<path d="M16.2194 30.3584C10.4482 28.2869 7.48861 21.8499 9.63441 16.1526C10.7442 13.0451 13.1859 10.6775 16.2194 9.56766C16.5154 9.41974 16.6633 9.19777 16.6633 8.82771V7.79192C16.6633 7.49591 16.5154 7.27394 16.2194 7.20007C16.1453 7.20007 15.9974 7.20007 15.9233 7.27394C8.89446 9.49361 5.04698 16.9666 7.26665 23.9955C8.59845 28.1388 11.78 31.3204 15.9233 32.6522C16.2194 32.8001 16.5154 32.6522 16.5892 32.3561C16.6633 32.2823 16.6633 32.2082 16.6633 32.0603V31.0243C16.6633 30.8024 16.4413 30.5065 16.2194 30.3584ZM24.0622 7.27394C23.7662 7.12602 23.4702 7.27394 23.3963 7.56996C23.3223 7.64401 23.3223 7.71788 23.3223 7.86597V8.90176C23.3223 9.19777 23.5442 9.49361 23.7662 9.6417C29.5373 11.7133 32.4969 18.1503 30.3512 23.8476C29.2413 26.9551 26.7997 29.3227 23.7662 30.4325C23.4702 30.5804 23.3223 30.8024 23.3223 31.1724V32.2082C23.3223 32.5042 23.4702 32.7262 23.7662 32.8001C23.8403 32.8001 23.9882 32.8001 24.0622 32.7262C31.0911 30.5065 34.9386 23.0336 32.7189 16.0047C31.3871 11.7873 28.1315 8.60574 24.0622 7.27394Z" fill="white"/>
</g>
<defs>
<clipPath id="clip0_1_4385">
<rect width="40" height="40" rx="20" fill="white"/>
</clipPath>
</defs>
</svg>
