<svg width="40" height="40" viewBox="0 0 40 40" fill="none" xmlns="http://www.w3.org/2000/svg">
<g clip-path="url(#clip0_1_4397)">
<rect width="40" height="40" fill="#50AF95"/>
<path fill-rule="evenodd" clip-rule="evenodd" d="M22.426 20.7982C22.2882 20.8085 21.5766 20.8509 19.9892 20.8509C18.7267 20.8509 17.8303 20.8131 17.5158 20.7982C12.6365 20.5836 8.99463 19.7345 8.99463 18.7179C8.99463 17.7014 12.6365 16.8535 17.5158 16.6355V19.9525C17.8348 19.9755 18.7485 20.0294 20.011 20.0294C21.5261 20.0294 22.2848 19.9663 22.4214 19.9537V16.6377C27.2903 16.8546 30.9242 17.7037 30.9242 18.7179C30.9242 19.7322 27.2914 20.5813 22.4214 20.797L22.426 20.7982ZM22.426 16.2947V13.3264H29.2208V8.79999H10.7209V13.3264H17.5146V16.2935C11.9926 16.5471 7.83997 17.6406 7.83997 18.9509C7.83997 20.2612 11.9926 21.3535 17.5146 21.6082V31.12H22.4248V21.6048C27.9342 21.3512 32.08 20.2589 32.08 18.9497C32.08 17.6406 27.9376 16.5483 22.4248 16.2935L22.426 16.2947Z" fill="white"/>
</g>
<defs>
<clipPath id="clip0_1_4397">
<rect width="40" height="40" rx="20" fill="white"/>
</clipPath>
</defs>
</svg>
