<svg width="16" height="16" viewBox="0 0 16 16" fill="none" xmlns="http://www.w3.org/2000/svg">
<path fill-rule="evenodd" clip-rule="evenodd" d="M4.16434 1.12017C4.97422 0.833374 5.98282 0.833374 8.00004 0.833374C10.0173 0.833374 11.0259 0.833374 11.8357 1.12017C13.2577 1.62372 14.3764 2.74235 14.8799 4.16434C15.1667 4.97422 15.1667 5.98282 15.1667 8.00004C15.1667 10.0173 15.1667 11.0259 14.8799 11.8357C14.3764 13.2577 13.2577 14.3764 11.8357 14.8799C11.0259 15.1667 10.0173 15.1667 8.00004 15.1667C5.98282 15.1667 4.97422 15.1667 4.16434 14.8799C2.74235 14.3764 1.62372 13.2577 1.12017 11.8357C0.833374 11.0259 0.833374 10.0173 0.833374 8.00004C0.833374 5.98282 0.833374 4.97422 1.12017 4.16434C1.62372 2.74235 2.74235 1.62372 4.16434 1.12017ZM6.19705 4.53032C6.48993 4.23742 6.48993 3.76255 6.19703 3.46966C5.90413 3.17677 5.42926 3.17677 5.13637 3.46967L3.4697 5.13638C3.17682 5.42928 3.17682 5.90415 3.46971 6.19704L5.13638 7.8637C5.42927 8.1566 5.90414 8.1566 6.19704 7.8637C6.48993 7.57081 6.48993 7.09594 6.19704 6.80304L5.8107 6.41671H9.33337C9.74759 6.41671 10.0834 6.08092 10.0834 5.66671C10.0834 5.25249 9.74759 4.91671 9.33337 4.91671H5.81067L6.19705 4.53032ZM10.8637 8.13638C10.5708 7.84348 10.0959 7.84348 9.80304 8.13638C9.51015 8.42927 9.51015 8.90414 9.80304 9.19704L10.1894 9.58337H6.66671C6.25249 9.58337 5.91671 9.91916 5.91671 10.3334C5.91671 10.7476 6.25249 11.0834 6.66671 11.0834H10.1894L9.80304 11.4697C9.51015 11.7626 9.51015 12.2375 9.80304 12.5304C10.0959 12.8233 10.5708 12.8233 10.8637 12.5304L12.5304 10.8637C12.8233 10.5708 12.8233 10.0959 12.5304 9.80304L10.8637 8.13638Z" fill="#9FA7A1"/>
</svg>
