<svg width="16" height="16" viewBox="0 0 16 16" fill="none" xmlns="http://www.w3.org/2000/svg">
<path fill-rule="evenodd" clip-rule="evenodd" d="M4.16434 1.12017C4.97422 0.833374 5.98282 0.833374 8.00004 0.833374C10.0173 0.833374 11.0259 0.833374 11.8357 1.12017C13.2577 1.62372 14.3764 2.74235 14.8799 4.16434C15.1667 4.97422 15.1667 5.98282 15.1667 8.00004C15.1667 10.0173 15.1667 11.0259 14.8799 11.8357C14.3764 13.2577 13.2577 14.3764 11.8357 14.8799C11.0259 15.1667 10.0173 15.1667 8.00004 15.1667C5.98282 15.1667 4.97422 15.1667 4.16434 14.8799C2.74235 14.3764 1.62372 13.2577 1.12017 11.8357C0.833374 11.0259 0.833374 10.0173 0.833374 8.00004C0.833374 5.98282 0.833374 4.97422 1.12017 4.16434C1.62372 2.74235 2.74235 1.62372 4.16434 1.12017ZM7.19704 5.8637C7.48993 5.57081 7.48993 5.09594 7.19704 4.80304C6.90414 4.51015 6.42927 4.51015 6.13638 4.80304L3.46971 7.46971C3.17682 7.7626 3.17682 8.23748 3.46971 8.53037L6.13638 11.197C6.42927 11.4899 6.90414 11.4899 7.19704 11.197C7.48993 10.9041 7.48993 10.4293 7.19704 10.1364L5.0607 8.00004L7.19704 5.8637ZM9.8637 4.80304C9.57081 4.51015 9.09594 4.51015 8.80304 4.80304C8.51015 5.09594 8.51015 5.57081 8.80304 5.8637L10.9394 8.00004L8.80304 10.1364C8.51015 10.4293 8.51015 10.9041 8.80304 11.197C9.09594 11.4899 9.57081 11.4899 9.8637 11.197L12.5304 8.53037C12.8233 8.23748 12.8233 7.7626 12.5304 7.46971L9.8637 4.80304Z" fill="#9FA7A1"/>
</svg>
