<svg width="16" height="16" viewBox="0 0 16 16" fill="none" xmlns="http://www.w3.org/2000/svg">
<path fill-rule="evenodd" clip-rule="evenodd" d="M8.58329 0.85342C8.52404 0.848099 8.46462 0.843828 8.40504 0.840618C8.27062 0.833374 8.1311 0.833374 7.85208 0.833374C7.21549 0.833374 6.89719 0.833374 6.62932 0.862328C4.29319 1.11483 2.44809 2.95994 2.19558 5.29606C2.16663 5.56394 2.16663 5.88223 2.16663 6.51882V9.33337C2.16663 10.1074 2.16663 10.4944 2.2094 10.8193C2.50479 13.063 4.27033 14.8285 6.514 15.1239C6.83891 15.1667 7.22593 15.1667 7.99996 15.1667C8.77399 15.1667 9.16101 15.1667 9.48592 15.1239C11.7296 14.8285 13.4951 13.063 13.7905 10.8193C13.8333 10.4944 13.8333 10.1074 13.8333 9.33337V7.02373C13.8333 6.55259 13.8333 6.31046 13.8132 6.08338H12.5333H12.5029C11.9687 6.08339 11.5229 6.0834 11.1586 6.05364C10.7787 6.02261 10.4221 5.95549 10.0848 5.78365C9.56737 5.52 9.14668 5.0993 8.88303 4.58186C8.71118 4.24459 8.64407 3.88794 8.61303 3.50805C8.58327 3.14382 8.58328 2.69797 8.58329 2.16382L8.58329 2.13338V0.85342ZM13.4385 4.58338C13.2498 4.13703 12.9961 3.71799 12.6834 3.34063C12.5342 3.16053 12.3629 2.98919 12.0202 2.64651L12.0202 2.64649L11.8723 2.4986L11.8723 2.49858C11.675 2.30129 11.5763 2.20265 11.4762 2.11272C11.0611 1.74007 10.5898 1.44232 10.0833 1.22816V2.13338C10.0833 2.70581 10.0839 3.09003 10.1081 3.3859C10.1315 3.67303 10.1734 3.81031 10.2195 3.90087C10.3394 4.13607 10.5306 4.3273 10.7658 4.44714C10.8564 4.49328 10.9936 4.53517 11.2808 4.55863C11.5766 4.5828 11.9609 4.58338 12.5333 4.58338H13.4385ZM10.5303 8.53038C10.8232 8.23749 10.8232 7.76261 10.5303 7.46972C10.2374 7.17683 9.76252 7.17683 9.46963 7.46972L7.33329 9.60606L6.86362 9.13639C6.57073 8.84349 6.09586 8.84349 5.80296 9.13639C5.51007 9.42928 5.51007 9.90415 5.80296 10.197L6.80296 11.197C7.09586 11.4899 7.57073 11.4899 7.86362 11.197L10.5303 8.53038Z" fill="#9FA7A1"/>
</svg>
