<svg width="16" height="16" viewBox="0 0 16 16" fill="none" xmlns="http://www.w3.org/2000/svg">
<path fill-rule="evenodd" clip-rule="evenodd" d="M4.54049 0.952119C5.32207 0.500872 6.31684 0.69635 6.86955 1.4098L7.15141 1.77363C7.35243 2.03311 7.67185 2.16662 8.00008 2.16662C8.32837 2.16662 8.64783 2.03309 8.84889 1.77357L9.13067 1.40984C9.68335 0.696436 10.6781 0.500968 11.4596 0.952188L12.3751 1.48076C13.1559 1.93158 13.4837 2.8899 13.1425 3.72449L12.9682 4.15086C12.8439 4.45511 12.8877 4.79779 13.0523 5.08228C13.2167 5.36639 13.4925 5.57763 13.8178 5.62198L14.2737 5.68415C15.1672 5.806 15.8334 6.56919 15.8334 7.47101V8.5289C15.8334 9.43073 15.1672 10.1939 14.2737 10.3158L13.8177 10.3779C13.4925 10.4223 13.2167 10.6335 13.0523 10.9176C12.8877 11.2021 12.8439 11.5448 12.9683 11.849L13.1426 12.2754C13.4837 13.11 13.156 14.0683 12.3751 14.5191L11.4596 15.0477C10.6781 15.4989 9.68338 15.3034 9.13071 14.5901L8.84896 14.2264C8.64789 13.9668 8.3284 13.8333 8.00008 13.8333C7.67182 13.8333 7.35238 13.9668 7.15134 14.2263L6.86951 14.5901C6.31681 15.3035 5.32207 15.499 4.54051 15.0478L3.62508 14.5192C2.84422 14.0684 2.51643 13.1101 2.85762 12.2755L3.03193 11.8491C3.1563 11.5448 3.11245 11.2021 2.94783 10.9176C2.78343 10.6335 2.50763 10.4223 2.18238 10.3779L1.72648 10.3158C0.832925 10.1939 0.166748 9.43073 0.166748 8.5289V7.47101C0.166748 6.56919 0.832924 5.806 1.72648 5.68415L2.18236 5.62199C2.50761 5.57763 2.78343 5.36638 2.94783 5.08226C3.11246 4.79775 3.15632 4.45505 3.03194 4.15079L2.85764 3.72441C2.51644 2.8898 2.84423 1.93145 3.6251 1.48062L4.54049 0.952119ZM8.00003 9.99997C9.1046 9.99997 10 9.10454 10 7.99997C10 6.8954 9.1046 5.99997 8.00003 5.99997C6.89546 5.99997 6.00003 6.8954 6.00003 7.99997C6.00003 9.10454 6.89546 9.99997 8.00003 9.99997Z" fill="#9FA7A1"/>
</svg>
