<svg width="16" height="16" viewBox="0 0 16 16" fill="none" xmlns="http://www.w3.org/2000/svg">
<g clip-path="url(#clip0_13_172)">
<path fill-rule="evenodd" clip-rule="evenodd" d="M0.833374 8.36271C0.833374 7.38666 0.833374 6.89864 0.924533 6.44116C1.08017 5.66009 1.43059 4.93099 1.94328 4.32152C2.24357 3.96455 2.62465 3.65969 3.38681 3.04996L3.52306 2.94096C4.97134 1.78234 5.69548 1.20302 6.48265 0.936281C7.46676 0.602804 8.53332 0.602804 9.51743 0.936281C10.3046 1.20302 11.0287 1.78233 12.477 2.94096L12.6133 3.04996C13.3754 3.65969 13.7565 3.96455 14.0568 4.32152C14.5695 4.93099 14.9199 5.66009 15.0756 6.44116C15.1667 6.89864 15.1667 7.38666 15.1667 8.36271C15.1667 10.2953 15.1667 11.2616 14.8884 12.0364C14.4113 13.365 13.3654 14.4109 12.0368 14.8881C11.262 15.1664 10.2957 15.1664 8.36307 15.1664H7.63702C5.70442 15.1664 4.73812 15.1664 3.96331 14.8881C2.63469 14.4109 1.5888 13.365 1.11164 12.0364C0.833374 11.2616 0.833374 10.2953 0.833374 8.36271ZM5.83337 10.1667C5.55723 10.1667 5.33337 10.3905 5.33337 10.6667C5.33337 10.9428 5.55723 11.1667 5.83338 11.1667H10.1667C10.4429 11.1667 10.6667 10.9428 10.6667 10.6667C10.6667 10.3905 10.4429 10.1667 10.1667 10.1667H5.83337Z" fill="#9FA7A1"/>
</g>
<defs>
<clipPath id="clip0_13_172">
<rect width="16" height="16" fill="white"/>
</clipPath>
</defs>
</svg>
