<svg width="17" height="16" viewBox="0 0 17 16" fill="none" xmlns="http://www.w3.org/2000/svg">
<path fill-rule="evenodd" clip-rule="evenodd" d="M9.99996 0.583374C9.58575 0.583374 9.24996 0.91916 9.24996 1.33337C9.24996 1.74759 9.58575 2.08337 9.99996 2.08337C11.0585 2.08337 11.9166 2.94149 11.9166 4.00004C11.9166 5.05859 11.0585 5.91671 9.99996 5.91671C9.58575 5.91671 9.24996 6.25249 9.24996 6.66671C9.24996 7.08092 9.58575 7.41671 9.99996 7.41671C11.8869 7.41671 13.4166 5.88701 13.4166 4.00004C13.4166 2.11307 11.8869 0.583374 9.99996 0.583374ZM11.3333 8.58337C10.9191 8.58337 10.5833 8.91916 10.5833 9.33337C10.5833 9.74759 10.9191 10.0834 11.3333 10.0834H12.1333C13.4864 10.0834 14.5833 11.1803 14.5833 12.5334C14.5833 13.2974 13.964 13.9167 13.2 13.9167H11.3333C10.9191 13.9167 10.5833 14.2525 10.5833 14.6667C10.5833 15.0809 10.9191 15.4167 11.3333 15.4167H13.2C14.7924 15.4167 16.0833 14.1258 16.0833 12.5334C16.0833 10.3519 14.3148 8.58337 12.1333 8.58337H11.3333ZM5.33329 0.833374C3.58439 0.833374 2.16663 2.25114 2.16663 4.00004C2.16663 5.74894 3.58439 7.16671 5.33329 7.16671C7.08219 7.16671 8.49996 5.74894 8.49996 4.00004C8.49996 2.25114 7.08219 0.833374 5.33329 0.833374ZM0.166626 12.6334C0.166626 10.5347 1.86794 8.83337 3.96662 8.83337H6.69996C8.79864 8.83337 10.5 10.5347 10.5 12.6334C10.5 14.0325 9.36575 15.1667 7.96663 15.1667H2.69996C1.30084 15.1667 0.166626 14.0325 0.166626 12.6334Z" fill="#9FA7A1"/>
</svg>
