<svg width="16" height="16" viewBox="0 0 16 16" fill="none" xmlns="http://www.w3.org/2000/svg">
<path fill-rule="evenodd" clip-rule="evenodd" d="M0.833374 2.66673C0.833374 1.65421 1.65419 0.833394 2.66671 0.833394L7.27547 0.833384C7.9853 0.833238 8.44249 0.833144 8.86965 0.955138C9.24721 1.06297 9.60142 1.24007 9.91421 1.47742C10.2681 1.74595 10.5423 2.11175 10.9681 2.6797L11.5897 3.50854C11.8094 3.51404 12.0095 3.5231 12.1922 3.53803C12.6678 3.57689 13.0702 3.65796 13.4377 3.84519C14.0335 4.14879 14.518 4.63322 14.8216 5.22907C15.0088 5.59652 15.0899 5.99894 15.1287 6.47453C15.1379 6.58737 15.1449 6.7068 15.1502 6.83337H14C12.6193 6.83337 11.5 7.95266 11.5 9.33337C11.5 10.7141 12.6193 11.8334 14 11.8334H15.1502C15.1449 11.96 15.1379 12.0794 15.1287 12.1922C15.0899 12.6678 15.0088 13.0702 14.8216 13.4377C14.518 14.0335 14.0335 14.518 13.4377 14.8216C13.0702 15.0088 12.6678 15.0899 12.1922 15.1287C11.7271 15.1667 11.1501 15.1667 10.4221 15.1667H5.57803C4.84994 15.1667 4.27294 15.1667 3.80786 15.1287C3.33227 15.0899 2.92985 15.0088 2.5624 14.8216C1.96656 14.518 1.48212 14.0335 1.17852 13.4377C0.991295 13.0702 0.910223 12.6678 0.871366 12.1922C0.833368 11.7271 0.83337 11.1501 0.833374 10.4221V2.66673ZM7.20004 1.83339C8.01124 1.83339 8.31919 1.83791 8.59504 1.91669C8.85336 1.99047 9.09572 2.11165 9.30974 2.27404C9.53827 2.44745 9.72665 2.6911 10.2134 3.34006L10.3334 3.50004H2.66087C2.20332 3.4969 1.83337 3.12502 1.83337 2.66673C1.83337 2.20649 2.20647 1.83339 2.66671 1.83339H7.20004Z" fill="black"/>
<path d="M15.1664 10.8334C15.1667 10.7019 15.1667 10.5649 15.1667 10.4221V8.24281C15.1667 8.10067 15.1667 7.96428 15.1664 7.83337H14C13.1716 7.83337 12.5 8.50495 12.5 9.33337C12.5 10.1618 13.1716 10.8334 14 10.8334H15.1664Z" fill="black"/>
</svg>
